<svg xmlns="http://www.w3.org/2000/svg" viewBox="0 0 100 100">
  <path d="M30 76 Q20 60 28 44 Q38 26 56 26 Q72 28 74 44 Q70 56 60 60 Q52 62 50 72 Q48 82 42 82 Q34 82 30 76 Z" fill="#FF7043"/>
  <path d="M30 76 Q20 60 28 44 Q38 26 56 26 Q72 28 74 44 Q70 56 60 60 Q52 62 50 72 Q48 82 42 82 Q34 82 30 76 Z" fill="none" stroke="#E64A19" stroke-width="1.5"/>
  <line x1="40" y1="52" x2="60" y2="52" stroke="#FFCCBC" stroke-width="1.5" opacity="0.7"/>
  <line x1="36" y1="60" x2="56" y2="60" stroke="#FFCCBC" stroke-width="1.5" opacity="0.7"/>
  <path d="M56 26 Q64 16 68 20" stroke="#FF7043" stroke-width="2.5" fill="none" stroke-linecap="round"/>
  <path d="M62 28 Q72 20 74 26" stroke="#FF7043" stroke-width="2" fill="none" stroke-linecap="round"/>
</svg>