<svg xmlns="http://www.w3.org/2000/svg" viewBox="0 0 64 64">
  <!-- bowl rim (top-down) -->
  <circle cx="32" cy="32" r="28" fill="#e8dcc8" stroke="#b89a6a" stroke-width="2"/>
  <!-- inner bowl surface -->
  <circle cx="32" cy="32" r="22" fill="#fff8ee"/>
  <!-- rice grains scattered from top view -->
  <ellipse cx="28" cy="26" rx="3.5" ry="1.5" fill="white" stroke="#ddd" stroke-width="0.5" transform="rotate(-20 28 26)"/>
  <ellipse cx="36" cy="25" rx="3.5" ry="1.5" fill="white" stroke="#ddd" stroke-width="0.5" transform="rotate(30 36 25)"/>
  <ellipse cx="32" cy="22" rx="3.5" ry="1.5" fill="white" stroke="#ddd" stroke-width="0.5" transform="rotate(5 32 22)"/>
  <ellipse cx="24" cy="30" rx="3.5" ry="1.5" fill="white" stroke="#ddd" stroke-width="0.5" transform="rotate(40 24 30)"/>
  <ellipse cx="40" cy="30" rx="3.5" ry="1.5" fill="white" stroke="#ddd" stroke-width="0.5" transform="rotate(-35 40 30)"/>
  <ellipse cx="28" cy="34" rx="3.5" ry="1.5" fill="white" stroke="#ddd" stroke-width="0.5" transform="rotate(15 28 34)"/>
  <ellipse cx="36" cy="35" rx="3.5" ry="1.5" fill="white" stroke="#ddd" stroke-width="0.5" transform="rotate(-25 36 35)"/>
  <ellipse cx="32" cy="38" rx="3.5" ry="1.5" fill="white" stroke="#ddd" stroke-width="0.5" transform="rotate(50 32 38)"/>
  <ellipse cx="22" cy="24" rx="3" ry="1.3" fill="white" stroke="#ddd" stroke-width="0.5" transform="rotate(-10 22 24)"/>
  <ellipse cx="42" cy="24" rx="3" ry="1.3" fill="white" stroke="#ddd" stroke-width="0.5" transform="rotate(20 42 24)"/>
  <ellipse cx="20" cy="34" rx="3" ry="1.3" fill="white" stroke="#ddd" stroke-width="0.5" transform="rotate(35 20 34)"/>
  <ellipse cx="44" cy="36" rx="3" ry="1.3" fill="white" stroke="#ddd" stroke-width="0.5" transform="rotate(-15 44 36)"/>
  <ellipse cx="30" cy="42" rx="3" ry="1.3" fill="white" stroke="#ddd" stroke-width="0.5" transform="rotate(25 30 42)"/>
  <ellipse cx="38" cy="41" rx="3" ry="1.3" fill="white" stroke="#ddd" stroke-width="0.5" transform="rotate(-40 38 41)"/>
  <!-- chopsticks resting on rim -->
  <line x1="14" y1="18" x2="42" y2="46" stroke="#8B5E3C" stroke-width="2.5" stroke-linecap="round" opacity="0.85"/>
  <line x1="18" y1="14" x2="46" y2="42" stroke="#8B5E3C" stroke-width="2.5" stroke-linecap="round" opacity="0.85"/>
</svg>
